# xmcd CD database file generated by LOLA_Freedb v0.9beta0
# 
# Track frame offsets:
#      180
#      11086
#      25365
# 
# Disc length: 557 seconds
# 
# Revision: 0 
# Processed by: cddbd v1.5.2PL0 Copyright (c) Steve Scherf et al.
# Submitted via: LOLA_Freedb v0.9beta0
# 
DISCID=1c022b03
DTITLE=Gudrun Lange and Kactus - Keine Angst (single CD)
DYEAR=1900
DGENRE=
TTITLE0=Gudrun Lange and Kactus - Keine Angst
TTITLE1=Gudrun Lange and Kactus - Ich hab noch lange nicht genug
TTITLE2=Gudrun Lange and Kactus - Surrender
EXTD=
EXTT0=
EXTT1=
EXTT2=
PLAYORDER=
